<svg width="274" height="271" viewBox="0 0 274 271" fill="none" xmlns="http://www.w3.org/2000/svg">
<path d="M7.67547 147.607C7.89034 133.754 18.1332 123.565 28.7711 119.306C35.3056 116.69 42.2204 115.702 49.0697 114.882C56.0196 114.049 62.9602 113.222 69.8524 111.871C94.5387 107.034 120.151 95.455 134.521 70.5099C137.475 65.3807 140.56 59.1593 139.926 52.7585C139.271 46.1428 133.543 43.033 128.393 42.0105C117.191 39.787 109.045 51.2869 104.112 61.1855C97.8358 73.778 91.3404 88.3609 95.065 103.148C98.7082 117.611 108.554 128.076 116.456 139.515C123.841 150.203 129.313 162.828 127.386 176.833C125.49 190.612 116.297 200.881 104.64 204.077C101.522 204.932 98.2899 205.313 95.0861 205.148C92.0434 204.991 88.9113 204.608 86.4298 202.419C81.6859 198.233 80.4951 191.011 81.7244 184.573C84.507 169.999 98.058 162.756 108.915 157.584C121.522 151.578 134.957 148.067 148.537 146.704C155.54 146.002 162.582 145.861 169.604 146.219C173.184 146.402 176.759 146.711 180.323 147.137C183.251 147.487 186.599 148.592 189.535 148.033C191.757 147.61 194.065 144.763 192.139 142.374C190.357 140.166 186.935 139.317 184.465 138.772C179.246 137.618 173.843 137.831 168.786 139.789C158.006 143.962 150.461 154.763 147.146 166.99C145.143 174.374 144.466 182.316 144.887 190.025C145.071 193.41 145.615 196.921 147.394 199.719C148.866 202.034 150.999 203.611 153.23 204.81C158.288 207.526 163.852 208.586 169.247 206.593C175.388 204.324 180.474 199.37 185.5 194.914C188.326 192.409 191.085 189.704 194.044 187.41C195.454 186.316 196.998 185.538 198.705 185.381C200.517 185.214 201.809 185.932 203.304 187.008C206.077 189.004 208.599 191.424 211.349 193.461C214.041 195.454 216.86 197.197 219.769 198.728C225.652 201.822 231.904 204.053 238.302 205.177C243.644 206.114 249.208 206.289 254.439 204.505C258.962 202.962 263.024 199.876 265.029 194.826C265.247 194.278 260.363 191.862 260.057 192.63C255.374 204.426 241.521 204.545 232.098 202.396C225.794 200.958 219.891 198.097 214.565 193.963C209.489 190.023 204.893 185.647 198.869 183.715C196.201 182.859 193.416 182.596 190.852 184.02C188.006 185.6 185.542 188.275 183.054 190.481C177.853 195.092 172.684 200.405 166.568 203.362C163.925 204.64 161.086 205.451 158.203 205.288C155.534 205.138 153.998 204.311 152.27 201.592C150.413 198.672 149.971 195.018 149.825 191.495C149.671 187.74 149.772 183.959 150.136 180.223C151.43 166.967 156.518 153.815 166.385 146.19C170.72 142.839 175.797 140.825 181.015 140.471C182.327 140.382 183.639 140.406 184.948 140.533C185.598 140.596 186.246 140.683 186.891 140.798C187.275 140.866 187.656 140.945 188.037 141.034C188.219 141.074 188.401 141.119 188.582 141.166C189.338 141.369 188.957 141.213 187.436 140.697C187.447 140.659 187.805 141.602 187.803 141.592C187.902 142.032 187.891 142.352 187.812 142.793C187.702 143.411 187.385 143.995 187.01 144.447C185.738 145.979 183.802 145.824 182.129 145.597C169.043 143.817 155.98 143.028 142.83 144.449C129.59 145.879 116.501 149.365 104.202 155.224C93.9747 160.096 81.2946 166.686 77.4095 179.682C75.7512 185.228 75.7642 191.762 78.5827 196.823C81.6378 202.309 87.6654 205.072 92.9536 206.506C104.14 209.539 116.964 206.06 125.008 196.367C132.393 187.466 134.228 174.499 131.546 162.851C125.391 136.123 93.9048 119.846 99.4623 89.0844C100.79 81.7355 103.842 74.8744 106.799 68.2435C109.222 62.811 111.925 57.4258 115.502 52.8784C118.948 48.499 123.325 45.0102 128.523 44.2617C129.205 44.1634 129.886 44.1149 130.573 44.1354C130.904 44.1451 131.225 44.1749 131.554 44.2042C132.919 44.3272 132.192 44.3871 131.915 44.2106C133.072 44.9456 133.972 46.6527 134.436 48.0346C135.356 50.7765 135.098 53.9174 134.479 56.7019C133.11 62.8561 129.728 68.4914 126.329 73.4003C122.73 78.5997 118.527 83.2283 113.945 87.2713C103.998 96.0479 92.3866 101.882 80.346 105.685C67.2136 109.833 53.8124 111.175 40.3483 113.031C28.4974 114.665 16.0466 118.099 8.14108 129.22C4.85919 133.836 2.79589 139.411 2.70269 145.411C2.68383 146.703 7.67436 147.678 7.67547 147.607Z" fill="url(#paint0_linear_102_92)"/>
<path d="M121.468 264.605C110.024 253.158 98.5034 241.788 86.8942 230.507L78.1891 222.044L69.4595 213.606L51.9989 196.73C40.3724 185.466 28.7777 174.17 17.292 162.765L8.6854 154.204L7.61213 153.131L7.07531 152.595L6.80707 152.327L6.52407 152.031C5.75006 151.254 5.06249 150.394 4.40449 149.517C3.76126 148.627 3.18084 147.692 2.66138 146.725C2.16113 145.747 1.70669 144.746 1.34241 143.71C-0.13395 139.575 -0.403274 135.027 0.587614 130.761C1.5567 126.49 3.7849 122.52 6.88983 119.458C29.9703 96.7579 53.3352 74.3409 76.32 51.5444C87.8197 40.1537 99.2493 28.6925 110.645 17.1969L119.184 8.5684C119.903 7.84813 120.588 7.12897 121.329 6.40316C122.066 5.65705 122.883 4.99436 123.717 4.3579C124.563 3.73583 125.453 3.17467 126.375 2.6689C127.306 2.18084 128.261 1.73487 129.252 1.37529C133.205 -0.0796539 137.575 -0.3894 141.716 0.489988C145.86 1.35793 149.75 3.44934 152.789 6.42679L170.157 23.3947L187.504 40.3837C199.053 51.7253 210.554 63.1152 222.058 74.5019L256.55 108.682L265.165 117.235L266.24 118.306L266.777 118.841L267.046 119.109L267.333 119.408C268.119 120.195 268.819 121.066 269.487 121.956C270.142 122.858 270.731 123.806 271.261 124.786C271.772 125.776 272.238 126.792 272.611 127.842C274.13 132.037 274.404 136.656 273.429 141.003C272.465 145.353 270.223 149.42 267.063 152.554C255.588 163.97 244.098 175.372 232.571 186.735L223.909 195.241L215.215 203.714C209.428 209.373 203.599 214.989 197.785 220.621L180.313 237.484L171.581 245.921L162.873 254.382L154.18 262.856C153.452 263.563 152.745 264.274 152 264.977C151.262 265.695 150.45 266.332 149.624 266.942C148.786 267.537 147.906 268.072 146.998 268.552C146.081 269.014 145.142 269.434 144.172 269.769C140.298 271.125 136.05 271.372 132.061 270.454C128.067 269.56 124.35 267.501 121.468 264.605ZM121.755 264.318C124.597 267.146 128.245 269.154 132.161 270.003C136.073 270.857 140.223 270.589 143.97 269.208C144.909 268.868 145.814 268.444 146.697 267.983C147.571 267.503 148.415 266.972 149.218 266.383C150.009 265.78 150.785 265.152 151.482 264.441C152.193 263.74 152.899 263.002 153.608 262.285L162.089 253.598L170.556 244.897L178.999 236.171L195.875 218.712C201.511 212.903 207.132 207.078 212.794 201.295L221.274 192.608L229.787 183.952C241.159 172.433 252.569 160.953 263.993 149.487C266.562 146.9 268.388 143.608 269.17 140.054C269.967 136.506 269.725 132.734 268.505 129.313C268.203 128.455 267.824 127.628 267.412 126.82C266.982 126.02 266.504 125.245 265.973 124.507C265.427 123.781 264.862 123.065 264.218 122.419L263.981 122.17L263.713 121.901L263.177 121.364L262.106 120.29L253.546 111.681L219.341 77.2153C207.945 65.7202 196.547 54.2279 185.197 42.6877L168.195 25.3536L151.214 7.99839C148.528 5.25132 145.054 3.2773 141.288 2.40124C137.528 1.5093 133.501 1.71456 129.832 2.99673C128.913 3.31201 128.025 3.70962 127.156 4.14488C126.296 4.59824 125.462 5.10291 124.667 5.66554C123.884 6.24257 123.113 6.84322 122.416 7.52658C121.701 8.20476 120.973 8.93463 120.255 9.63866L111.62 18.1719C100.116 29.5585 88.6458 40.9791 77.2466 52.4706C54.4325 75.4385 31.999 98.7855 9.28096 121.849C6.65744 124.508 4.81681 127.898 4.04058 131.53C3.25843 135.159 3.50522 139.002 4.76766 142.483C5.07874 143.355 5.46852 144.196 5.89229 145.017C6.33268 145.83 6.81926 146.618 7.36162 147.368C7.91803 148.107 8.49477 148.834 9.1513 149.49L9.39218 149.743L9.66041 150.011L10.1972 150.547L11.2709 151.62L19.8386 160.22C31.2519 171.697 42.5566 183.283 53.8292 194.901L70.7171 212.348L79.1618 221.071L87.6309 229.77C98.9209 241.371 110.299 252.883 121.755 264.318Z" fill="url(#paint1_linear_102_92)"/>
<defs>
<linearGradient id="paint0_linear_102_92" x1="4.89376" y1="124.678" x2="262.815" y2="124.678" gradientUnits="userSpaceOnUse">
<stop stop-color="#717171"/>
<stop offset="0.2279" stop-color="#B7B7B7"/>
<stop offset="0.414" stop-color="white"/>
<stop offset="0.586" stop-color="#D9D9D9"/>
<stop offset="0.7721" stop-color="#F8F8F8"/>
<stop offset="1" stop-color="#979797"/>
</linearGradient>
<linearGradient id="paint1_linear_102_92" x1="-0.000752863" y1="135.5" x2="273.999" y2="135.5" gradientUnits="userSpaceOnUse">
<stop stop-color="#717171"/>
<stop offset="0.2279" stop-color="#B7B7B7"/>
<stop offset="0.414" stop-color="white"/>
<stop offset="0.586" stop-color="#D9D9D9"/>
<stop offset="0.7721" stop-color="#F8F8F8"/>
<stop offset="1" stop-color="#979797"/>
</linearGradient>
</defs>
</svg>
