<svg width="240" height="13" viewBox="0 0 240 13" fill="none" xmlns="http://www.w3.org/2000/svg">
<path d="M211.723 0H214.06L212.397 4H210.06L211.723 0Z" fill="white"/>
<path d="M235.394 12C234.705 12 234.063 11.867 233.472 11.6007C232.88 11.3347 232.409 11.0083 232.06 10.6222L232.583 8.44619C232.856 8.94404 233.248 9.37778 233.759 9.74668C234.269 10.1159 234.836 10.3006 235.458 10.3006C235.986 10.3006 236.416 10.1398 236.748 9.81776C237.08 9.49575 237.246 9.1034 237.246 8.63962C237.246 8.27915 237.163 7.98278 236.997 7.75089C236.831 7.51936 236.637 7.33255 236.416 7.19115C236.194 7.04974 236.011 6.94423 235.866 6.87572L234.486 6.18042C234.18 6.01776 233.856 5.81591 233.516 5.5756C233.175 5.33528 232.885 5.01951 232.647 4.629C232.408 4.23885 232.289 3.74283 232.289 3.14168C232.289 2.52331 232.43 1.97857 232.711 1.50637C232.992 1.03453 233.388 0.665251 233.899 0.399292C234.41 0.132967 235.002 0 235.675 0C236.322 0 236.896 0.109533 237.399 0.328234C237.902 0.546936 238.302 0.776996 238.6 1.01694L238.089 3.16733C237.817 2.76363 237.457 2.41414 237.01 2.11814C236.563 1.82177 236.088 1.67377 235.585 1.67377C235.125 1.67377 234.763 1.80456 234.5 2.06649C234.236 2.32842 234.103 2.64822 234.103 3.02555C234.103 3.29187 234.165 3.51938 234.289 3.70804C234.412 3.8967 234.566 4.05349 234.749 4.17767C234.932 4.30259 235.113 4.41213 235.292 4.50591L236.697 5.21441C236.892 5.30892 237.125 5.43969 237.393 5.6071C237.661 5.77452 237.923 5.98663 238.179 6.24416C238.434 6.5017 238.645 6.81527 238.811 7.18417C238.977 7.55343 239.06 7.99523 239.06 8.5103C239.06 9.17996 238.905 9.77855 238.594 10.3064C238.283 10.8343 237.855 11.2487 237.31 11.5491C236.765 11.8498 236.127 12 235.394 12Z" fill="white"/>
<path d="M3.44959 12.5007C2.73591 12.5007 2.07262 12.3642 1.46047 12.0909C0.847933 11.8179 0.361353 11.4828 0 11.0865L0.541857 8.85296C0.823871 9.36397 1.2292 9.80917 1.75788 10.1878C2.28656 10.5668 2.87242 10.7564 3.51578 10.7564C4.06214 10.7564 4.50696 10.5913 4.85064 10.2608C5.19432 9.93026 5.36615 9.52755 5.36615 9.05151C5.36615 8.68151 5.28005 8.3773 5.10821 8.13928C4.93637 7.90163 4.73596 7.70988 4.50696 7.56474C4.27759 7.41922 4.08846 7.31129 3.9388 7.24098L2.51143 6.52729C2.19445 6.36034 1.85941 6.15315 1.50708 5.90649C1.15437 5.65982 0.855081 5.3357 0.608413 4.93486C0.361745 4.5344 0.238408 4.02527 0.238408 3.40823C0.238408 2.77351 0.383917 2.21438 0.674579 1.72969C0.965241 1.24538 1.37509 0.866338 1.90378 0.593349C2.43246 0.319984 3.04463 0.183502 3.74102 0.183502C4.41033 0.183502 5.00519 0.29593 5.52522 0.520413C6.04488 0.745272 6.45886 0.981037 6.76757 1.22733L6.23891 3.43455C5.95689 3.02018 5.58462 2.66145 5.12212 2.35763C4.65962 2.05343 4.16816 1.90152 3.6485 1.90152C3.17247 1.90152 2.79796 2.03576 2.52497 2.30462C2.25161 2.57347 2.11549 2.90173 2.11549 3.28903C2.11549 3.56239 2.17903 3.79591 2.30687 3.98956C2.43472 4.18321 2.59302 4.34414 2.78291 4.47161C2.97205 4.59983 3.15931 4.71226 3.34469 4.80852L4.79875 5.53575C5.00143 5.63276 5.24133 5.76698 5.51921 5.93882C5.79671 6.11066 6.06744 6.32838 6.33215 6.59272C6.59687 6.85706 6.81458 7.17893 6.98642 7.55758C7.15826 7.93623 7.24436 8.39008 7.24436 8.91876C7.24436 9.60612 7.08344 10.2205 6.76195 10.7624C6.44045 11.3042 5.99748 11.7295 5.43383 12.0378C4.8683 12.3466 4.20727 12.5007 3.44959 12.5007Z" fill="white"/>
<path d="M19.2744 2.14043V0.396149H27.3346V2.14043H24.2956V12.2881H22.3137V2.14043H19.2744Z" fill="white"/>
<path d="M45.6147 12.5258C44.7512 12.5258 43.9411 12.3649 43.1836 12.0434C42.4257 11.7224 41.7606 11.2795 41.1881 10.7156C40.6155 10.1521 40.1685 9.49568 39.8471 8.74681C39.5253 7.99832 39.3647 7.19645 39.3647 6.34194C39.3647 5.4878 39.5253 4.6863 39.8471 3.93743C40.1685 3.18893 40.6155 2.53254 41.1881 1.96863C41.7606 1.4051 42.4257 0.962245 43.1836 0.640816C43.9411 0.319388 44.7512 0.158478 45.6147 0.158478C46.4869 0.158478 47.2993 0.319388 48.0527 0.640816C48.8061 0.962245 49.4689 1.4051 50.0414 1.96863C50.614 2.53254 51.061 3.18893 51.3824 3.93743C51.7038 4.6863 51.8647 5.4878 51.8647 6.34194C51.8647 7.19645 51.7038 7.99832 51.3824 8.74681C51.061 9.49568 50.614 10.1521 50.0414 10.7156C49.4689 11.2795 48.8057 11.7224 48.0527 12.0434C47.2997 12.3652 46.4869 12.5258 45.6147 12.5258ZM45.6147 10.6626C46.4076 10.6626 47.1234 10.4686 47.7621 10.081C48.4005 9.69381 48.9069 9.17164 49.2817 8.51525C49.6561 7.85923 49.8433 7.13443 49.8433 6.34157C49.8433 5.54006 49.6561 4.81374 49.2817 4.16149C48.9069 3.50961 48.4005 2.99005 47.7621 2.60245C47.1234 2.21486 46.4076 2.02088 45.6147 2.02088C44.8219 2.02088 44.1061 2.21486 43.4674 2.60245C42.8287 2.99005 42.3223 3.50961 41.9478 4.16149C41.5734 4.81337 41.3862 5.54006 41.3862 6.34157C41.3862 7.13443 41.5734 7.85923 41.9478 8.51525C42.3223 9.17164 42.8287 9.69381 43.4674 10.081C44.1061 10.469 44.8223 10.6626 45.6147 10.6626Z" fill="white"/>
<path d="M63.8948 12.2876V0.396637H67.2109C68.0123 0.396637 68.7017 0.557526 69.2787 0.878914C69.8557 1.2003 70.2981 1.62505 70.6067 2.15393C70.9149 2.68206 71.069 3.26357 71.069 3.89807C71.069 4.5322 70.9104 5.1047 70.5935 5.61553C70.2763 6.12637 69.8316 6.52255 69.2591 6.80447L72.8263 12.2876H70.6465L67.4357 7.29351H65.7975V12.2876H63.8948ZM65.7972 5.66814H67.1846C67.6514 5.66814 68.0322 5.58018 68.3273 5.40389C68.6224 5.22759 68.8426 5.0032 68.9877 4.72992C69.1332 4.45703 69.2058 4.17962 69.2058 3.8977C69.2058 3.38687 69.0208 2.96586 68.6509 2.6362C68.2811 2.30579 67.792 2.14078 67.1846 2.14078H65.7972V5.66814Z" fill="white"/>
<path d="M88.3443 12.2876V6.60638L84.8564 0.396637H87.0629L88.7409 3.46166C88.8552 3.66426 88.9657 3.86913 89.0713 4.07624C89.177 4.28336 89.2826 4.52769 89.3886 4.80924C89.5028 4.52769 89.613 4.28336 89.7186 4.07624C89.8242 3.86913 89.9344 3.66426 90.049 3.46166L91.7402 0.396637H93.788L90.3001 6.60638V12.2876H88.3443Z" fill="white"/>
<path d="M111.833 12.2876V0.396606H117.937V2.1009H113.735V4.28107H117.012V5.9459H113.735V10.5434H117.937V12.2876H111.833Z" fill="white"/>
<path d="M134.857 12.4868L129.967 0.197357H132.016L134.381 6.22293C134.486 6.46956 134.583 6.70978 134.671 6.94326C134.759 7.17673 134.848 7.4433 134.936 7.74257C135.015 7.45233 135.099 7.19216 135.187 6.9632C135.275 6.73424 135.367 6.48723 135.464 6.22293L137.829 0.197357H139.772L134.883 12.4868H134.857Z" fill="white"/>
<path d="M151.802 12.2876V0.396606H157.906V2.1009H153.704V4.28107H156.981V5.9459H153.704V10.5434H157.906V12.2876H151.802Z" fill="white"/>
<path d="M179.489 12.6842L171.76 4.66387V12.2876H169.936V0L177.666 8.00681V0.396579H179.489V12.6842Z" fill="white"/>
<path d="M191.519 2.14075V0.396606H199.578V2.14075H196.54V12.2876H194.558V2.14075H191.519Z" fill="white"/>
</svg>
